<svg width="200" height="200" viewBox="0 0 200 200" fill="none" xmlns="http://www.w3.org/2000/svg">
<g clip-path="url(#clip0_146_10)">
<rect width="200" height="200" rx="50" fill="#C12424"/>
<path d="M100 56.7868C111.799 56.7868 121.409 47.2527 121.543 35.4863C114.774 33.2274 107.531 32 100 32C92.4697 32 85.2267 33.2255 78.4575 35.4863C78.5907 47.2546 88.2012 56.7868 100 56.7868Z" fill="#290707"/>
<path d="M100 65.5625C84.5551 65.5625 71.7799 53.9541 69.9187 39.0059C67.7968 40.0544 65.7377 41.2096 63.749 42.4655C67.1193 59.4005 82.0907 72.2059 100 72.2059C117.91 72.2059 132.883 59.4005 136.252 42.4655C134.263 41.2096 132.202 40.0544 130.082 39.0059C128.221 53.9541 115.446 65.5625 100 65.5625Z" fill="#290707"/>
<path d="M100 134.44C115.446 134.44 128.221 146.048 130.082 160.998C132.204 159.95 134.263 158.795 136.252 157.539C132.881 140.604 117.91 127.798 100 127.798C82.0907 127.798 67.1174 140.604 63.749 157.539C65.7377 158.795 67.7987 159.95 69.9187 160.998C71.7799 146.048 84.5551 134.44 100 134.44Z" fill="#290707"/>
<path d="M138.192 107.648C141.018 106.15 143.747 104.497 146.368 102.691C153.417 107.97 159.539 114.421 164.447 121.75C166.752 114.92 168 107.606 168 99.998C168 92.3917 166.75 85.0765 164.447 78.2465C159.539 85.575 153.417 92.0263 146.368 97.3053C140.984 101.338 135.05 104.666 128.719 107.203C119.83 110.761 110.145 112.741 100 112.741C89.8548 112.741 80.1701 110.761 71.281 107.203C75.5362 105.071 80.056 103.399 84.7812 102.247C89.6797 103.359 94.7685 103.966 100 103.966C105.231 103.966 110.32 103.359 115.219 102.247C123.546 100.356 131.311 96.9646 138.192 92.3479C147.304 86.2354 154.876 78.001 160.203 68.3603C156.11 60.5865 150.555 53.7033 143.903 48.0723C138.341 67.0625 120.766 80.9736 100 80.9736C79.2338 80.9736 61.6591 67.0625 56.0965 48.0723C49.4453 53.7014 43.8903 60.5846 39.7968 68.3603C45.1235 78.001 52.6957 86.2354 61.8076 92.3479C58.9815 93.8456 56.2525 95.4993 53.632 97.3053C46.5831 92.0263 40.461 85.575 35.553 78.2465C33.2484 85.0765 32 92.3898 32 99.998C32 107.604 33.2503 114.92 35.553 121.75C40.461 114.421 46.5831 107.97 53.632 102.691C59.0158 98.6583 64.9476 95.3299 71.281 92.7932C80.1701 89.2346 89.8548 87.2554 100 87.2554C110.145 87.2554 119.83 89.2346 128.719 92.7932C124.464 94.9246 119.944 96.5973 115.219 97.7487C110.32 96.6373 105.231 96.0302 100 96.0302C94.7685 96.0302 89.6797 96.6373 84.7812 97.7487C76.4535 99.6383 68.689 103.031 61.8076 107.648C52.6957 113.761 45.1235 121.995 39.7968 131.636C43.8903 139.41 49.4453 146.293 56.0965 151.924C61.6591 132.934 79.2338 119.022 100 119.022C120.766 119.022 138.341 132.934 143.903 151.924C150.555 146.295 156.11 139.41 160.203 131.636C154.876 121.997 147.304 113.763 138.192 107.648Z" fill="#290707"/>
<path d="M100 143.213C88.2012 143.213 78.5907 152.745 78.4575 164.513C85.2286 166.772 92.4697 168 100 168C107.531 168 114.774 166.772 121.543 164.513C121.409 152.747 111.799 143.213 100 143.213Z" fill="#290707"/>
</g>
<defs>
<clipPath id="clip0_146_10">
<rect width="200" height="200" fill="white"/>
</clipPath>
</defs>
</svg>
