<svg width="2473" height="1391" viewBox="0 0 2473 1391" fill="none" xmlns="http://www.w3.org/2000/svg">
<g clip-path="url(#clip0_80_33)">
<rect width="2472.89" height="1391" fill="#1B171B"/>
<g filter="url(#filter0_f_80_33)">
<path d="M828.804 1655.68C828.804 1899.3 398.676 1872.05 -112.053 1872.05C-622.783 1872.05 -1036.81 1674.55 -1036.81 1430.93C-1036.81 1187.3 -893.899 510.033 -383.169 510.033C127.56 510.033 828.804 1412.05 828.804 1655.68Z" fill="#C12424"/>
</g>
<g filter="url(#filter1_f_80_33)">
<path d="M3359.01 1382.92C3359.01 1626.55 2944.98 1824.05 2434.25 1824.05C1923.52 1824.05 1029.08 862.141 1029.08 618.513C1029.08 374.885 1923.52 941.792 2434.25 941.792C2944.98 941.792 3359.01 1139.29 3359.01 1382.92Z" fill="#C12424"/>
</g>
<g filter="url(#filter2_f_80_33)">
<path d="M3236.65 426.5C3236.65 543.668 3037.53 638.651 2791.91 638.651C2546.28 638.651 2116.12 176.043 2116.12 58.8755C2116.12 -58.2921 2546.28 214.35 2791.91 214.35C3037.53 214.35 3236.65 309.332 3236.65 426.5Z" fill="#C12424"/>
</g>
</g>
<defs>
<filter id="filter0_f_80_33" x="-1304.51" y="242.338" width="2401.01" height="1898.32" filterUnits="userSpaceOnUse" color-interpolation-filters="sRGB">
<feFlood flood-opacity="0" result="BackgroundImageFix"/>
<feBlend mode="normal" in="SourceGraphic" in2="BackgroundImageFix" result="shape"/>
<feGaussianBlur stdDeviation="133.848" result="effect1_foregroundBlur_80_33"/>
</filter>
<filter id="filter1_f_80_33" x="761.387" y="289.993" width="2865.32" height="1801.75" filterUnits="userSpaceOnUse" color-interpolation-filters="sRGB">
<feFlood flood-opacity="0" result="BackgroundImageFix"/>
<feBlend mode="normal" in="SourceGraphic" in2="BackgroundImageFix" result="shape"/>
<feGaussianBlur stdDeviation="133.848" result="effect1_foregroundBlur_80_33"/>
</filter>
<filter id="filter2_f_80_33" x="1987.38" y="-99.1194" width="1378.01" height="866.513" filterUnits="userSpaceOnUse" color-interpolation-filters="sRGB">
<feFlood flood-opacity="0" result="BackgroundImageFix"/>
<feBlend mode="normal" in="SourceGraphic" in2="BackgroundImageFix" result="shape"/>
<feGaussianBlur stdDeviation="64.3712" result="effect1_foregroundBlur_80_33"/>
</filter>
<clipPath id="clip0_80_33">
<rect width="2472.89" height="1391" fill="white"/>
</clipPath>
</defs>
</svg>
